<?xml version="1.0" encoding="utf-8"?>
<!-- Generator: Adobe Illustrator 24.3.0, SVG Export Plug-In . SVG Version: 6.00 Build 0)  -->
<svg version="1.1" id="Layer_1" xmlns="http://www.w3.org/2000/svg" xmlns:xlink="http://www.w3.org/1999/xlink" x="0px" y="0px"
	 viewBox="0 0 62 76" style="enable-background:new 0 0 62 76;" xml:space="preserve">
<style type="text/css">
	.st0{fill:#FFFFFF;}
	.st1{fill:#E5A1F8;}
	.st2{fill:#803BEC;}
	.st3{opacity:0.25;}
	.st4{opacity:0.6;}
	.st5{opacity:0.4;}
	.st6{fill:url(#SVGID_1_);}
	.st7{fill:url(#SVGID_2_);}
	.st8{fill:url(#SVGID_3_);}
	.st9{fill:none;}
	.st10{font-family:'FranklinGothic-Heavy';}
	.st11{font-size:24.0177px;}
</style>
<g>
	<path class="st0" d="M151,73.7l-0.2,0.8l0,0l-0.5,2l0,0l0,0l-4.6,16.1l0,0l0,0l-0.3,1.1l5.6-3.8V74.3l0,0L151,73.7z"/>
	<path class="st1" d="M157.1,49.7l-0.8,1.3l0,0l-19.9,32l0,0l-0.4,0.7l-0.1,0.2l21.2-14.3V50.4V49.7z"/>
	<path class="st2" d="M164.8,23.1l-1.4,1.6l0,0l0,0l0,0l0,0l0,0l0,0c0,0,0,0,0,0.1l-37.6,44.9l0,0v0.1l-1.4,1.6l-0.3,0.4l40.8-27.4
		V25.2l0,0L164.8,23.1z"/>
	<path class="st2" d="M164.8,23.1l-53.5,35.8l12.7,13l0.3-0.4l1.4-1.6v-0.1l0,0l37.6-44.9c0,0,0,0,0-0.1l0,0l0,0l0,0l0,0l0,0l0,0
		L164.8,23.1z"/>
	<path class="st1" d="M157.1,49.7L124,71.9L135.8,84l0.1-0.2l0.4-0.7l0,0l19.9-32l0,0L157.1,49.7z"/>
	<path class="st0" d="M151,73.7l-15.2,10.2l9.6,9.8l0.3-1.1l0,0l0,0l4.5-16.2l0.5-1.9L151,73.7z"/>
	<g class="st3">
		<g class="st3">
			<path d="M164.8,25.3c-0.1,1.6-0.2,3.2-0.3,4.8c-0.1,1.6-0.1,3.2-0.2,4.8l-0.1,4.8l-0.1,4.5l-3.6,2.4c-1.3,0.9-2.6,1.7-3.8,2.6
				c-2.6,1.7-5.1,3.4-7.6,5.2c-1.3,0.9-2.5,1.7-3.8,2.6c-1.3,0.9-2.5,1.8-3.8,2.7c-1.2,0.9-2.5,1.8-3.7,2.7s-2.5,1.8-3.7,2.7
				c1.3-0.8,2.7-1.6,4-2.4c1.3-0.8,2.6-1.6,4-2.5c1.3-0.8,2.6-1.6,3.9-2.5c1.3-0.8,2.6-1.7,3.9-2.5c2.1-1.4,4.3-2.8,6.4-4.2
				c0.2-0.2,0.5-0.3,0.7-0.5h0.1v-0.8l7.7-5.2V25.3z"/>
		</g>
	</g>
	<g class="st3">
		<g class="st3">
			<path d="M157.1,49.7c0,0.3-0.1,0.5-0.1,0.8c-0.1,1.4-0.2,2.8-0.3,4.2c-0.1,1.7-0.2,3.3-0.2,5c0,1.7-0.1,3.3-0.1,5
				c0,1.6,0,3.1,0,4.7c-1.3,0.9-2.6,1.7-3.8,2.6c-1.4,0.9-2.7,1.9-4.1,2.8c-1.3,0.9-2.7,1.9-4,2.9s-2.6,2-3.9,3
				c1.5-0.8,2.9-1.7,4.3-2.5c1.4-0.9,2.9-1.7,4.3-2.6c0.5-0.3,1.1-0.7,1.6-1l0,0c0,0,0.1,0,0.1-0.1c0,0,0.1,0,0.1-0.1l0,0v-0.6
				l6.1-4.2V50.4V49.7z"/>
		</g>
	</g>
	<g class="st3">
		<g class="st3">
			<path d="M151,73.7c0,0.2-0.1,0.5-0.1,0.7c-0.2,1.1-0.3,2.2-0.4,3.4c-0.1,1.4-0.2,2.7-0.2,4.1c0,0.7,0,1.4,0,2c0,0.7,0,1.4,0,2
				c0,0.6,0,1.4,0,2c0,0.6,0,1.2,0.1,1.8c-0.8,0.6-1.6,1.2-2.4,1.8c-0.9,0.7-1.7,1.4-2.6,2.1l5.6-3.8V74.2l0,0V73.7z"/>
		</g>
	</g>
	<g class="st4">
		<g class="st4">
			<path class="st0" d="M157.9,27.7l-46.6,31.2l29.5,30.2c-1.6-1.8-3.3-3.6-4.9-5.3l-0.1-0.1l-2.2-2.3l-3.5-3.8l-3.6-3.8l-2.1-2.2
				l-0.1-0.1l-5.1-5.3l-6.9-7.1c3.7-2.5,7.4-4.9,11.1-7.4c3.9-2.6,7.7-5.2,11.6-7.9l5.8-4l5.7-4l5.7-4
				C154.1,30.4,156,29.1,157.9,27.7z"/>
		</g>
	</g>
	<g class="st3">
		<g class="st3">
			<path d="M150.8,75.2c0,0.1-0.2,0.5-0.6,1.3l0,0l0,0l-4.5,16.1l0,0l0,0c0.1-0.1,0.5-1.1,1.1-2.7c0.3-0.8,0.6-1.7,1-2.8
				c0.3-1,0.7-2.1,1-3.2c0.3-1.1,0.6-2.2,0.9-3.2s0.5-2,0.7-2.8C150.6,76.4,150.8,75.3,150.8,75.2z"/>
		</g>
	</g>
	<g class="st3">
		<g class="st3">
			<path d="M156.3,51l-19.9,32l0,0c0,0,0.4-0.5,0.9-1.3c0.6-0.9,1.5-2.1,2.4-3.6c1-1.5,2.1-3.2,3.3-5.1c1.2-1.9,2.5-3.9,3.7-5.9
				s2.5-4,3.6-5.9c1.1-1.9,2.2-3.7,3-5.2c0.9-1.5,1.6-2.8,2.1-3.7C155.9,51.6,156.2,51.1,156.3,51z"/>
		</g>
	</g>
	<g class="st3">
		<g class="st3">
			<path d="M161.9,26.7c0.7-1,1.2-1.6,1.4-1.9l-37.6,44.9c0.2-0.2,0.8-0.8,1.6-1.8c1.1-1.2,2.6-2.9,4.4-5s3.9-4.5,6.2-7.1
				c2.2-2.6,4.6-5.4,7-8.2c2.3-2.8,4.7-5.6,6.9-8.3c2.2-2.7,4.2-5.2,5.9-7.3C159.5,29.8,160.9,28,161.9,26.7z"/>
		</g>
	</g>
	<g class="st3">
		<g class="st3">
			<path d="M163.4,24.8L163.4,24.8L163.4,24.8L163.4,24.8z"/>
		</g>
	</g>
	<g class="st4">
		<g class="st4">
			<path class="st0" d="M145.7,92.6L145.7,92.6L145.7,92.6L145.7,92.6z"/>
		</g>
	</g>
	<g class="st5">
		<g class="st5">
			<path class="st0" d="M150.2,76.4c-0.2,0.4-0.3,0.9-0.5,1.4c-0.3,0.8-0.6,1.7-1,2.8c-0.3,1-0.7,2.1-1,3.2
				c-0.3,1.1-0.6,2.2-0.9,3.2s-0.5,2-0.7,2.8c-0.3,1.6-0.5,2.6-0.5,2.8L150.2,76.4z"/>
		</g>
	</g>
	<g>
		<g class="st5">
			<path class="st1" d="M156.3,51c0,0-0.4,0.5-0.9,1.3c-0.6,0.9-1.5,2.1-2.5,3.5c-1,1.5-2.1,3.2-3.3,5.1c-1.2,1.9-2.5,3.9-3.7,5.9
				s-2.5,4-3.6,5.9s-2.2,3.7-3,5.2c-0.9,1.5-1.6,2.8-2.1,3.7c-0.4,0.8-0.7,1.3-0.7,1.4L156.3,51L156.3,51z"/>
		</g>
	</g>
	<g>
		<g class="st4">
			<path class="st1" d="M163.4,24.8L163.4,24.8c-0.2,0.2-0.8,0.9-1.7,1.9c-1.1,1.2-2.6,2.9-4.4,5s-3.9,4.5-6.2,7.1
				c-2.2,2.6-4.6,5.4-7,8.2c-2.3,2.8-4.7,5.6-6.9,8.3c-2.2,2.7-4.2,5.2-5.9,7.3c-1.7,2.1-3.1,4-4.1,5.2c-0.9,1.1-1.4,1.8-1.5,2l0,0
				l0,0L163.4,24.8C163.3,24.8,163.3,24.8,163.4,24.8L163.4,24.8z"/>
		</g>
	</g>
</g>
<g>
	<g>
		
			<linearGradient id="SVGID_1_" gradientUnits="userSpaceOnUse" x1="185.2399" y1="24.7867" x2="239.1975" y2="24.7867" gradientTransform="matrix(1 0 0 -1 0 78)">
			<stop  offset="0.2194" style="stop-color:#FFFFFF"/>
			<stop  offset="0.5613" style="stop-color:#000000"/>
			<stop  offset="0.6589" style="stop-color:#949292"/>
		</linearGradient>
		<path class="st6" d="M198.4,50.7c-0.1-0.1-0.2-0.2-0.4-0.3c-0.3-0.2-0.5-0.4-0.7-0.6c-0.1-1.6,0-2.9,0.4-4.1
			c0.1-0.4,0.3-0.7,0.6-1c0.2-0.3,0.5-0.5,0.9-0.6c0.3-0.1,0.8-0.1,1.4,0c0.6,0.1,1.2,0.2,2,0.4l1.6,0.4l4.2,1.1
			c1.7,0.4,3,0.7,4,0.9c0.1,1.4,0.2,2.5,0.4,3.1c-0.7-0.2-2.4-0.8-5.4-1.7c-0.3,0.7-0.6,1.2-0.6,1.5c-0.1,0.3-0.2,0.7-0.3,1.1
			c-0.1,0.5-0.3,0.9-0.4,1.3c1.9,2.4,3,4.2,3.5,5.4c0.5,1.2,0.5,2.2,0.2,3c-0.3,0.8-0.8,1.3-1.6,1.6c-0.8,0.3-1.4,0.3-2.1,0.1
			c-0.7-0.3-1.4-0.8-2.1-1.6c-0.7-0.8-1.2-1.8-1.5-2.9s-0.3-2.2,0.2-3.4c0.1-0.3,0.2-0.5,0.3-0.8c0.1-0.2,0.3-0.5,0.4-0.8
			c0.2-0.3,0.3-0.6,0.5-0.9l-2.1-2.1c-0.4-0.4-1.4-1.3-2.9-2.6c-0.2,0.5-0.3,1-0.4,1.6C198.6,49.4,198.5,50.1,198.4,50.7z M204.6,51
			c0.2-0.3,0.4-0.7,0.8-1.2c0.3-0.5,0.7-1,1.2-1.6c-1.9-0.5-3.9-1-6.1-1.4C201.4,47.6,202.8,49,204.6,51z M204.2,58.4
			c0.5,0.5,1.1,0.9,1.7,1.2c0.7,0.2,1.2,0.3,1.6,0.1c0.4-0.2,0.7-0.5,0.8-0.9c0.1-0.3,0.2-0.8,0.3-1.4c0,0-0.3-0.4-0.9-1.1
			c-0.5-0.6-1.3-1.6-2.3-2.9C205,55.4,204.5,57,204.2,58.4z"/>
		
			<linearGradient id="SVGID_2_" gradientUnits="userSpaceOnUse" x1="185.2399" y1="35.6517" x2="239.1975" y2="35.6517" gradientTransform="matrix(1 0 0 -1 0 78)">
			<stop  offset="0.2194" style="stop-color:#FFFFFF"/>
			<stop  offset="0.5613" style="stop-color:#000000"/>
			<stop  offset="0.6589" style="stop-color:#949292"/>
		</linearGradient>
		<path class="st7" d="M200.1,40.1c0.1-0.3,0.3-0.5,0.7-0.6c0.4-0.1,0.8-0.1,1.3,0.1c0.4,0.2,0.8,0.4,1,0.7c0.2,0.3,0.3,0.6,0.2,0.9
			c-0.1,0.3-0.4,0.5-0.7,0.6c-0.4,0.1-0.8,0.1-1.2-0.1c-0.4-0.2-0.8-0.4-1-0.7C200,40.7,200,40.4,200.1,40.1z M205.8,44.2l-1-0.6
			c0.1-0.9,0-1.9-0.4-3.2l1.5,0.6l0.6,0.3c0.1,0,0.2,0.1,0.2,0.1c0.2,0.1,0.5,0.2,0.8,0.3c0.1,0.1,0.3,0.1,0.4,0.1l1.5,0.5
			c0.3,0.1,1.1,0.4,2.2,0.7c-0.1,0.9-0.2,1.6-0.3,2.3c-0.7-0.3-1.8-0.7-3.2-1.3l-2.2-0.8c0,0.2,0,0.4,0,0.6
			C206,43.9,205.9,44.1,205.8,44.2z"/>
		
			<linearGradient id="SVGID_3_" gradientUnits="userSpaceOnUse" x1="185.2399" y1="39.3189" x2="239.1975" y2="39.3189" gradientTransform="matrix(1 0 0 -1 0 78)">
			<stop  offset="0.2194" style="stop-color:#FFFFFF"/>
			<stop  offset="0.5613" style="stop-color:#000000"/>
			<stop  offset="0.6589" style="stop-color:#949292"/>
		</linearGradient>
		<path class="st8" d="M208.5,40.8l-0.7-0.3l1.3-3.9l1,0.4L208.5,40.8z"/>
	</g>
	
		<rect x="176.6" y="13" transform="matrix(0.342 -0.9397 0.9397 0.342 117.5856 218.3259)" class="st9" width="76.2" height="24.4"/>
	
		<text transform="matrix(0.2327 -0.6393 0.9397 0.342 310.8002 48.8807)" class="st1" style="font-family:'MaturaMTScriptCapitals'; font-size:18.8393px;">Ai</text>
	
		<text transform="matrix(0.2208 -0.8463 0.8917 0.4527 288.6148 50.9806)" class="st1" style="font-family:'MaturaMTScriptCapitals'; font-size:19.8545px;">-</text>
</g>
<g>
	
		<text transform="matrix(0.1623 -0.4458 0.9397 0.342 214.6902 -104.3307)" style="fill:#FFFFFF;stroke:#000000;stroke-miterlimit:10; font-family:'Broadway'; font-size:25.2222px;">Aiseet Tech</text>
</g>
<text transform="matrix(0.1804 -0.4957 0.9397 0.342 27.9137 58.3999)" class="st2 st10 st11">aiseet.</text>
</svg>
